{
    "asset" : {
        "generator" : "Khronos glTF Blender I/O v1.2.75",
        "version" : "2.0"
    },
    "extensionsUsed" : [
        "KHR_texture_transform"
    ],
    "extensionsRequired" : [
        "KHR_texture_transform"
    ],
    "scene" : 0,
    "scenes" : [
        {
            "name" : "Scene",
            "nodes" : [
                0,
                1,
                2,
                3,
                4
            ]
        }
    ],
    "nodes" : [
        {
            "mesh" : 0,
            "name" : "boardbox",
            "scale" : [
                1.5809706449508667,
                1,
                1
            ],
            "translation" : [
                0,
                1,
                0
            ]
        },
        {
            "mesh" : 1,
            "name" : "candy",
            "rotation" : [
                0.5477657914161682,
                0.061112940311431885,
                0.7284007668495178,
                0.40700146555900574
            ],
            "scale" : [
                -4.467397689819336,
                -4.4673991203308105,
                -4.4673991203308105
            ],
            "translation" : [
                0.27808046340942383,
                4.999687194824219,
                -0.22749581933021545
            ]
        },
        {
            "mesh" : 2,
            "name" : "candy.001",
            "rotation" : [
                -0.35068342089653015,
                -0.22896051406860352,
                0.7743383646011353,
                0.47433987259864807
            ],
            "scale" : [
                -4.467397689819336,
                -4.4673991203308105,
                -4.4673991203308105
            ],
            "translation" : [
                0.27808046340942383,
                3.472377300262451,
                0.6339515447616577
            ]
        },
        {
            "mesh" : 3,
            "name" : "candy.002",
            "rotation" : [
                0.30560752749443054,
                0.2621292173862457,
                0.7606975436210632,
                -0.5091478824615479
            ],
            "scale" : [
                -4.467397689819336,
                -4.4673991203308105,
                -4.4673991203308105
            ],
            "translation" : [
                0.3587303161621094,
                7.22692346572876,
                0.48682108521461487
            ]
        },
        {
            "mesh" : 4,
            "name" : "candy.003",
            "rotation" : [
                -0.4475306570529938,
                -0.8530100584030151,
                0.19741252064704895,
                -0.1819848269224167
            ],
            "scale" : [
                -4.467397689819336,
                -4.4673991203308105,
                -4.4673991203308105
            ],
            "translation" : [
                0.25791797041893005,
                9.46365737915039,
                -0.736831784248352
            ]
        }
    ],
    "materials" : [
        {
            "doubleSided" : true,
            "emissiveFactor" : [
                0,
                0,
                0
            ],
            "name" : "\u30de\u30c6\u30ea\u30a2\u30eb.004",
            "normalTexture" : {
                "extensions" : {
                    "KHR_texture_transform" : {
                        "offset" : [
                            0,
                            -3
                        ],
                        "scale" : [
                            4,
                            4
                        ]
                    }
                },
                "index" : 0,
                "texCoord" : 0
            },
            "pbrMetallicRoughness" : {
                "baseColorFactor" : [
                    0.737910807132721,
                    0.7454043030738831,
                    0.7529425024986267,
                    1
                ],
                "metallicFactor" : 0,
                "roughnessFactor" : 0.5
            }
        },
        {
            "doubleSided" : true,
            "emissiveFactor" : [
                0,
                0,
                0
            ],
            "name" : "\u30de\u30c6\u30ea\u30a2\u30eb.025",
            "normalTexture" : {
                "index" : 1,
                "texCoord" : 0
            },
            "pbrMetallicRoughness" : {
                "metallicFactor" : 0,
                "roughnessFactor" : 0.27727270126342773
            }
        },
        {
            "doubleSided" : true,
            "emissiveFactor" : [
                0,
                0,
                0
            ],
            "name" : "bou.001",
            "pbrMetallicRoughness" : {
                "baseColorFactor" : [
                    0.800000011920929,
                    0.800000011920929,
                    0.800000011920929,
                    1
                ],
                "metallicFactor" : 0,
                "roughnessFactor" : 0.17500001192092896
            }
        }
    ],
    "meshes" : [
        {
            "name" : "\u7acb\u65b9\u4f53.005",
            "primitives" : [
                {
                    "attributes" : {
                        "POSITION" : 0,
                        "NORMAL" : 1,
                        "TEXCOORD_0" : 2
                    },
                    "indices" : 3,
                    "material" : 0
                }
            ]
        },
        {
            "name" : "\u5e73\u9762.010",
            "primitives" : [
                {
                    "attributes" : {
                        "POSITION" : 4,
                        "NORMAL" : 5,
                        "TEXCOORD_0" : 6,
                        "JOINTS_0" : 7,
                        "WEIGHTS_0" : 8
                    },
                    "indices" : 9,
                    "material" : 1
                },
                {
                    "attributes" : {
                        "POSITION" : 10,
                        "NORMAL" : 11,
                        "TEXCOORD_0" : 12,
                        "JOINTS_0" : 13,
                        "WEIGHTS_0" : 14
                    },
                    "indices" : 15,
                    "material" : 2
                }
            ]
        },
        {
            "name" : "\u5e73\u9762.004",
            "primitives" : [
                {
                    "attributes" : {
                        "POSITION" : 16,
                        "NORMAL" : 17,
                        "TEXCOORD_0" : 18,
                        "JOINTS_0" : 19,
                        "WEIGHTS_0" : 20
                    },
                    "indices" : 9,
                    "material" : 1
                },
                {
                    "attributes" : {
                        "POSITION" : 21,
                        "NORMAL" : 22,
                        "TEXCOORD_0" : 23,
                        "JOINTS_0" : 24,
                        "WEIGHTS_0" : 25
                    },
                    "indices" : 15,
                    "material" : 2
                }
            ]
        },
        {
            "name" : "\u5e73\u9762.005",
            "primitives" : [
                {
                    "attributes" : {
                        "POSITION" : 26,
                        "NORMAL" : 27,
                        "TEXCOORD_0" : 28,
                        "JOINTS_0" : 29,
                        "WEIGHTS_0" : 30
                    },
                    "indices" : 9,
                    "material" : 1
                },
                {
                    "attributes" : {
                        "POSITION" : 31,
                        "NORMAL" : 32,
                        "TEXCOORD_0" : 33,
                        "JOINTS_0" : 34,
                        "WEIGHTS_0" : 35
                    },
                    "indices" : 15,
                    "material" : 2
                }
            ]
        },
        {
            "name" : "\u5e73\u9762.006",
            "primitives" : [
                {
                    "attributes" : {
                        "POSITION" : 36,
                        "NORMAL" : 37,
                        "TEXCOORD_0" : 38,
                        "JOINTS_0" : 39,
                        "WEIGHTS_0" : 40
                    },
                    "indices" : 9,
                    "material" : 1
                },
                {
                    "attributes" : {
                        "POSITION" : 41,
                        "NORMAL" : 42,
                        "TEXCOORD_0" : 43,
                        "JOINTS_0" : 44,
                        "WEIGHTS_0" : 45
                    },
                    "indices" : 15,
                    "material" : 2
                }
            ]
        }
    ],
    "textures" : [
        {
            "source" : 0
        },
        {
            "source" : 1
        }
    ],
    "images" : [
        {
            "bufferView" : 4,
            "mimeType" : "image/png",
            "name" : "cardboard"
        },
        {
            "bufferView" : 11,
            "mimeType" : "image/jpeg",
            "name" : "TexturesCom_Ice0011_M"
        }
    ],
    "accessors" : [
        {
            "bufferView" : 0,
            "componentType" : 5126,
            "count" : 40,
            "max" : [
                1.4783546924591064,
                1.8919621706008911,
                1.9048168659210205
            ],
            "min" : [
                -1.4313734769821167,
                -1,
                -1.7373580932617188
            ],
            "type" : "VEC3"
        },
        {
            "bufferView" : 1,
            "componentType" : 5126,
            "count" : 40,
            "type" : "VEC3"
        },
        {
            "bufferView" : 2,
            "componentType" : 5126,
            "count" : 40,
            "type" : "VEC2"
        },
        {
            "bufferView" : 3,
            "componentType" : 5123,
            "count" : 66,
            "type" : "SCALAR"
        },
        {
            "bufferView" : 5,
            "componentType" : 5126,
            "count" : 1544,
            "max" : [
                0.12206561863422394,
                0.13070344924926758,
                0.12206544727087021
            ],
            "min" : [
                -0.12206550687551498,
                -0.1156308576464653,
                -0.12206558883190155
            ],
            "type" : "VEC3"
        },
        {
            "bufferView" : 6,
            "componentType" : 5126,
            "count" : 1544,
            "type" : "VEC3"
        },
        {
            "bufferView" : 7,
            "componentType" : 5126,
            "count" : 1544,
            "type" : "VEC2"
        },
        {
            "bufferView" : 8,
            "componentType" : 5123,
            "count" : 1544,
            "type" : "VEC4"
        },
        {
            "bufferView" : 9,
            "componentType" : 5126,
            "count" : 1544,
            "type" : "VEC4"
        },
        {
            "bufferView" : 10,
            "componentType" : 5123,
            "count" : 6816,
            "type" : "SCALAR"
        },
        {
            "bufferView" : 12,
            "componentType" : 5126,
            "count" : 341,
            "max" : [
                0.012426944449543953,
                -0.10129940509796143,
                0.012427007779479027
            ],
            "min" : [
                -0.012427043169736862,
                -0.44990330934524536,
                -0.012426975183188915
            ],
            "type" : "VEC3"
        },
        {
            "bufferView" : 13,
            "componentType" : 5126,
            "count" : 341,
            "type" : "VEC3"
        },
        {
            "bufferView" : 14,
            "componentType" : 5126,
            "count" : 341,
            "type" : "VEC2"
        },
        {
            "bufferView" : 15,
            "componentType" : 5123,
            "count" : 341,
            "type" : "VEC4"
        },
        {
            "bufferView" : 16,
            "componentType" : 5126,
            "count" : 341,
            "type" : "VEC4"
        },
        {
            "bufferView" : 17,
            "componentType" : 5123,
            "count" : 672,
            "type" : "SCALAR"
        },
        {
            "bufferView" : 18,
            "componentType" : 5126,
            "count" : 1544,
            "max" : [
                0.12206561863422394,
                0.13070344924926758,
                0.12206544727087021
            ],
            "min" : [
                -0.12206550687551498,
                -0.1156308576464653,
                -0.12206558883190155
            ],
            "type" : "VEC3"
        },
        {
            "bufferView" : 19,
            "componentType" : 5126,
            "count" : 1544,
            "type" : "VEC3"
        },
        {
            "bufferView" : 20,
            "componentType" : 5126,
            "count" : 1544,
            "type" : "VEC2"
        },
        {
            "bufferView" : 21,
            "componentType" : 5123,
            "count" : 1544,
            "type" : "VEC4"
        },
        {
            "bufferView" : 22,
            "componentType" : 5126,
            "count" : 1544,
            "type" : "VEC4"
        },
        {
            "bufferView" : 23,
            "componentType" : 5126,
            "count" : 341,
            "max" : [
                0.012426944449543953,
                -0.10129940509796143,
                0.012427007779479027
            ],
            "min" : [
                -0.012427043169736862,
                -0.44990330934524536,
                -0.012426975183188915
            ],
            "type" : "VEC3"
        },
        {
            "bufferView" : 24,
            "componentType" : 5126,
            "count" : 341,
            "type" : "VEC3"
        },
        {
            "bufferView" : 25,
            "componentType" : 5126,
            "count" : 341,
            "type" : "VEC2"
        },
        {
            "bufferView" : 26,
            "componentType" : 5123,
            "count" : 341,
            "type" : "VEC4"
        },
        {
            "bufferView" : 27,
            "componentType" : 5126,
            "count" : 341,
            "type" : "VEC4"
        },
        {
            "bufferView" : 28,
            "componentType" : 5126,
            "count" : 1544,
            "max" : [
                0.12206561863422394,
                0.13070344924926758,
                0.12206544727087021
            ],
            "min" : [
                -0.12206550687551498,
                -0.1156308576464653,
                -0.12206558883190155
            ],
            "type" : "VEC3"
        },
        {
            "bufferView" : 29,
            "componentType" : 5126,
            "count" : 1544,
            "type" : "VEC3"
        },
        {
            "bufferView" : 30,
            "componentType" : 5126,
            "count" : 1544,
            "type" : "VEC2"
        },
        {
            "bufferView" : 31,
            "componentType" : 5123,
            "count" : 1544,
            "type" : "VEC4"
        },
        {
            "bufferView" : 32,
            "componentType" : 5126,
            "count" : 1544,
            "type" : "VEC4"
        },
        {
            "bufferView" : 33,
            "componentType" : 5126,
            "count" : 341,
            "max" : [
                0.012426944449543953,
                -0.10129940509796143,
                0.012427007779479027
            ],
            "min" : [
                -0.012427043169736862,
                -0.44990330934524536,
                -0.012426975183188915
            ],
            "type" : "VEC3"
        },
        {
            "bufferView" : 34,
            "componentType" : 5126,
            "count" : 341,
            "type" : "VEC3"
        },
        {
            "bufferView" : 35,
            "componentType" : 5126,
            "count" : 341,
            "type" : "VEC2"
        },
        {
            "bufferView" : 36,
            "componentType" : 5123,
            "count" : 341,
            "type" : "VEC4"
        },
        {
            "bufferView" : 37,
            "componentType" : 5126,
            "count" : 341,
            "type" : "VEC4"
        },
        {
            "bufferView" : 38,
            "componentType" : 5126,
            "count" : 1544,
            "max" : [
                0.12206561863422394,
                0.13070344924926758,
                0.12206544727087021
            ],
            "min" : [
                -0.12206550687551498,
                -0.1156308576464653,
                -0.12206558883190155
            ],
            "type" : "VEC3"
        },
        {
            "bufferView" : 39,
            "componentType" : 5126,
            "count" : 1544,
            "type" : "VEC3"
        },
        {
            "bufferView" : 40,
            "componentType" : 5126,
            "count" : 1544,
            "type" : "VEC2"
        },
        {
            "bufferView" : 41,
            "componentType" : 5123,
            "count" : 1544,
            "type" : "VEC4"
        },
        {
            "bufferView" : 42,
            "componentType" : 5126,
            "count" : 1544,
            "type" : "VEC4"
        },
        {
            "bufferView" : 43,
            "componentType" : 5126,
            "count" : 341,
            "max" : [
                0.012426944449543953,
                -0.10129940509796143,
                0.012427007779479027
            ],
            "min" : [
                -0.012427043169736862,
                -0.44990330934524536,
                -0.012426975183188915
            ],
            "type" : "VEC3"
        },
        {
            "bufferView" : 44,
            "componentType" : 5126,
            "count" : 341,
            "type" : "VEC3"
        },
        {
            "bufferView" : 45,
            "componentType" : 5126,
            "count" : 341,
            "type" : "VEC2"
        },
        {
            "bufferView" : 46,
            "componentType" : 5123,
            "count" : 341,
            "type" : "VEC4"
        },
        {
            "bufferView" : 47,
            "componentType" : 5126,
            "count" : 341,
            "type" : "VEC4"
        }
    ],
    "bufferViews" : [
        {
            "buffer" : 0,
            "byteLength" : 480,
            "byteOffset" : 0
        },
        {
            "buffer" : 0,
            "byteLength" : 480,
            "byteOffset" : 480
        },
        {
            "buffer" : 0,
            "byteLength" : 320,
            "byteOffset" : 960
        },
        {
            "buffer" : 0,
            "byteLength" : 132,
            "byteOffset" : 1280
        },
        {
            "buffer" : 0,
            "byteLength" : 901397,
            "byteOffset" : 1412
        },
        {
            "buffer" : 0,
            "byteLength" : 18528,
            "byteOffset" : 902812
        },
        {
            "buffer" : 0,
            "byteLength" : 18528,
            "byteOffset" : 921340
        },
        {
            "buffer" : 0,
            "byteLength" : 12352,
            "byteOffset" : 939868
        },
        {
            "buffer" : 0,
            "byteLength" : 12352,
            "byteOffset" : 952220
        },
        {
            "buffer" : 0,
            "byteLength" : 24704,
            "byteOffset" : 964572
        },
        {
            "buffer" : 0,
            "byteLength" : 13632,
            "byteOffset" : 989276
        },
        {
            "buffer" : 0,
            "byteLength" : 1068228,
            "byteOffset" : 1002908
        },
        {
            "buffer" : 0,
            "byteLength" : 4092,
            "byteOffset" : 2071136
        },
        {
            "buffer" : 0,
            "byteLength" : 4092,
            "byteOffset" : 2075228
        },
        {
            "buffer" : 0,
            "byteLength" : 2728,
            "byteOffset" : 2079320
        },
        {
            "buffer" : 0,
            "byteLength" : 2728,
            "byteOffset" : 2082048
        },
        {
            "buffer" : 0,
            "byteLength" : 5456,
            "byteOffset" : 2084776
        },
        {
            "buffer" : 0,
            "byteLength" : 1344,
            "byteOffset" : 2090232
        },
        {
            "buffer" : 0,
            "byteLength" : 18528,
            "byteOffset" : 2091576
        },
        {
            "buffer" : 0,
            "byteLength" : 18528,
            "byteOffset" : 2110104
        },
        {
            "buffer" : 0,
            "byteLength" : 12352,
            "byteOffset" : 2128632
        },
        {
            "buffer" : 0,
            "byteLength" : 12352,
            "byteOffset" : 2140984
        },
        {
            "buffer" : 0,
            "byteLength" : 24704,
            "byteOffset" : 2153336
        },
        {
            "buffer" : 0,
            "byteLength" : 4092,
            "byteOffset" : 2178040
        },
        {
            "buffer" : 0,
            "byteLength" : 4092,
            "byteOffset" : 2182132
        },
        {
            "buffer" : 0,
            "byteLength" : 2728,
            "byteOffset" : 2186224
        },
        {
            "buffer" : 0,
            "byteLength" : 2728,
            "byteOffset" : 2188952
        },
        {
            "buffer" : 0,
            "byteLength" : 5456,
            "byteOffset" : 2191680
        },
        {
            "buffer" : 0,
            "byteLength" : 18528,
            "byteOffset" : 2197136
        },
        {
            "buffer" : 0,
            "byteLength" : 18528,
            "byteOffset" : 2215664
        },
        {
            "buffer" : 0,
            "byteLength" : 12352,
            "byteOffset" : 2234192
        },
        {
            "buffer" : 0,
            "byteLength" : 12352,
            "byteOffset" : 2246544
        },
        {
            "buffer" : 0,
            "byteLength" : 24704,
            "byteOffset" : 2258896
        },
        {
            "buffer" : 0,
            "byteLength" : 4092,
            "byteOffset" : 2283600
        },
        {
            "buffer" : 0,
            "byteLength" : 4092,
            "byteOffset" : 2287692
        },
        {
            "buffer" : 0,
            "byteLength" : 2728,
            "byteOffset" : 2291784
        },
        {
            "buffer" : 0,
            "byteLength" : 2728,
            "byteOffset" : 2294512
        },
        {
            "buffer" : 0,
            "byteLength" : 5456,
            "byteOffset" : 2297240
        },
        {
            "buffer" : 0,
            "byteLength" : 18528,
            "byteOffset" : 2302696
        },
        {
            "buffer" : 0,
            "byteLength" : 18528,
            "byteOffset" : 2321224
        },
        {
            "buffer" : 0,
            "byteLength" : 12352,
            "byteOffset" : 2339752
        },
        {
            "buffer" : 0,
            "byteLength" : 12352,
            "byteOffset" : 2352104
        },
        {
            "buffer" : 0,
            "byteLength" : 24704,
            "byteOffset" : 2364456
        },
        {
            "buffer" : 0,
            "byteLength" : 4092,
            "byteOffset" : 2389160
        },
        {
            "buffer" : 0,
            "byteLength" : 4092,
            "byteOffset" : 2393252
        },
        {
            "buffer" : 0,
            "byteLength" : 2728,
            "byteOffset" : 2397344
        },
        {
            "buffer" : 0,
            "byteLength" : 2728,
            "byteOffset" : 2400072
        },
        {
            "buffer" : 0,
            "byteLength" : 5456,
            "byteOffset" : 2402800
        }
    ],
    "buffers" : [
        {
            "byteLength" : 2408256,
            "uri" : "data:application/octet-stream;base64,"
        }
    ]
}
