{
    "asset" : {
        "generator" : "Khronos glTF Blender I/O v1.2.75",
        "version" : "2.0"
    },
    "scene" : 0,
    "scenes" : [
        {
            "name" : "Scene",
            "nodes" : [
                0,
                1,
                2,
                3,
                4,
                5,
                6,
                7,
                8,
                9
            ]
        }
    ],
    "nodes" : [
        {
            "mesh" : 0,
            "name" : "2person",
            "scale" : [
                0.18510505557060242,
                0.18510505557060242,
                0.18510505557060242
            ],
            "translation" : [
                1.6898071765899658,
                1.5592070817947388,
                1.3087550401687622
            ]
        },
        {
            "mesh" : 1,
            "name" : "3person",
            "scale" : [
                0.18510505557060242,
                0.18510505557060242,
                0.18510505557060242
            ],
            "translation" : [
                1.8789900541305542,
                1.5532869100570679,
                -0.4604678153991699
            ]
        },
        {
            "mesh" : 2,
            "name" : "4person",
            "scale" : [
                0.18510505557060242,
                0.18510505557060242,
                0.18510505557060242
            ],
            "translation" : [
                1.6598968505859375,
                1.5532869100570679,
                -2.882861375808716
            ]
        },
        {
            "mesh" : 3,
            "name" : "5person",
            "scale" : [
                0.18510505557060242,
                0.18510505557060242,
                0.18510505557060242
            ],
            "translation" : [
                2.6140124797821045,
                1.5532869100570679,
                -2.430539846420288
            ]
        },
        {
            "mesh" : 4,
            "name" : "6person",
            "scale" : [
                0.18510505557060242,
                0.18510505557060242,
                0.18510505557060242
            ],
            "translation" : [
                -1.3897395133972168,
                1.5532869100570679,
                1.4990029335021973
            ]
        },
        {
            "mesh" : 5,
            "name" : "7person",
            "scale" : [
                0.18510505557060242,
                0.18510505557060242,
                0.18510505557060242
            ],
            "translation" : [
                -3.0223374366760254,
                1.5532869100570679,
                0.5554885864257812
            ]
        },
        {
            "mesh" : 6,
            "name" : "1person",
            "scale" : [
                0.18510505557060242,
                0.18510505557060242,
                0.18510505557060242
            ],
            "translation" : [
                0.25506269931793213,
                1.5497348308563232,
                0.8016546964645386
            ]
        },
        {
            "mesh" : 7,
            "name" : "8cloud",
            "rotation" : [
                0,
                0,
                -0.6797516942024231,
                0.7334423661231995
            ],
            "scale" : [
                0.13660676777362823,
                0.030365969985723495,
                0.13660679757595062
            ],
            "translation" : [
                -0.3356228470802307,
                2.315185070037842,
                -0.9901130199432373
            ]
        },
        {
            "mesh" : 8,
            "name" : "9cloud",
            "rotation" : [
                0,
                0,
                -0.6797516942024231,
                0.7334423661231995
            ],
            "scale" : [
                0.13660676777362823,
                0.030365969985723495,
                0.13660679757595062
            ],
            "translation" : [
                -2.274386167526245,
                2.315185070037842,
                2.872148275375366
            ]
        },
        {
            "mesh" : 9,
            "name" : "0land",
            "scale" : [
                1.4403276443481445,
                0.17122071981430054,
                1
            ],
            "translation" : [
                0.7990669012069702,
                0.5314116477966309,
                0.8885453343391418
            ]
        }
    ],
    "materials" : [
        {
            "doubleSided" : true,
            "emissiveFactor" : [
                0,
                0,
                0
            ],
            "name" : "white_main",
            "pbrMetallicRoughness" : {
                "baseColorFactor" : [
                    0.9386858344078064,
                    0.9386858344078064,
                    0.9386858940124512,
                    1
                ],
                "metallicFactor" : 0,
                "roughnessFactor" : 0.5
            }
        },
        {
            "doubleSided" : true,
            "emissiveFactor" : [
                0,
                0,
                0
            ],
            "name" : "yellow_main",
            "pbrMetallicRoughness" : {
                "baseColorFactor" : [
                    0.9911022186279297,
                    0.8468735814094543,
                    0.00030356645584106445,
                    1
                ],
                "metallicFactor" : 0,
                "roughnessFactor" : 0.5
            }
        },
        {
            "doubleSided" : true,
            "emissiveFactor" : [
                0,
                0,
                0
            ],
            "name" : "white.008",
            "pbrMetallicRoughness" : {
                "baseColorFactor" : [
                    0.9046611785888672,
                    0.8796225190162659,
                    0.8387993574142456,
                    1
                ],
                "metallicFactor" : 0,
                "roughnessFactor" : 0.5
            }
        }
    ],
    "meshes" : [
        {
            "name" : "\u7403.002",
            "primitives" : [
                {
                    "attributes" : {
                        "POSITION" : 0,
                        "NORMAL" : 1,
                        "TEXCOORD_0" : 2
                    },
                    "indices" : 3,
                    "material" : 0
                }
            ]
        },
        {
            "name" : "\u7403.004",
            "primitives" : [
                {
                    "attributes" : {
                        "POSITION" : 4,
                        "NORMAL" : 5,
                        "TEXCOORD_0" : 6
                    },
                    "indices" : 3,
                    "material" : 0
                }
            ]
        },
        {
            "name" : "\u7403.005",
            "primitives" : [
                {
                    "attributes" : {
                        "POSITION" : 7,
                        "NORMAL" : 8,
                        "TEXCOORD_0" : 9
                    },
                    "indices" : 3,
                    "material" : 0
                }
            ]
        },
        {
            "name" : "\u7403.006",
            "primitives" : [
                {
                    "attributes" : {
                        "POSITION" : 10,
                        "NORMAL" : 11,
                        "TEXCOORD_0" : 12
                    },
                    "indices" : 3,
                    "material" : 0
                }
            ]
        },
        {
            "name" : "\u7403.007",
            "primitives" : [
                {
                    "attributes" : {
                        "POSITION" : 13,
                        "NORMAL" : 14,
                        "TEXCOORD_0" : 15
                    },
                    "indices" : 3,
                    "material" : 0
                }
            ]
        },
        {
            "name" : "\u7403.008",
            "primitives" : [
                {
                    "attributes" : {
                        "POSITION" : 16,
                        "NORMAL" : 17,
                        "TEXCOORD_0" : 18
                    },
                    "indices" : 3,
                    "material" : 0
                }
            ]
        },
        {
            "name" : "\u7403.009",
            "primitives" : [
                {
                    "attributes" : {
                        "POSITION" : 19,
                        "NORMAL" : 20,
                        "TEXCOORD_0" : 21
                    },
                    "indices" : 3,
                    "material" : 1
                }
            ]
        },
        {
            "name" : "\u5186\u67f1.049",
            "primitives" : [
                {
                    "attributes" : {
                        "POSITION" : 22,
                        "NORMAL" : 23,
                        "TEXCOORD_0" : 24,
                        "TEXCOORD_1" : 25
                    },
                    "indices" : 26,
                    "material" : 2
                }
            ]
        },
        {
            "name" : "\u5186\u67f1.050",
            "primitives" : [
                {
                    "attributes" : {
                        "POSITION" : 27,
                        "NORMAL" : 28,
                        "TEXCOORD_0" : 29,
                        "TEXCOORD_1" : 30
                    },
                    "indices" : 26,
                    "material" : 2
                }
            ]
        },
        {
            "name" : "\u7acb\u65b9\u4f53.026",
            "primitives" : [
                {
                    "attributes" : {
                        "POSITION" : 31,
                        "NORMAL" : 32,
                        "TEXCOORD_0" : 33
                    },
                    "indices" : 34,
                    "material" : 0
                },
                {
                    "attributes" : {
                        "POSITION" : 35,
                        "NORMAL" : 36,
                        "TEXCOORD_0" : 37
                    },
                    "indices" : 38,
                    "material" : 1
                }
            ]
        }
    ],
    "accessors" : [
        {
            "bufferView" : 0,
            "componentType" : 5126,
            "count" : 1194,
            "max" : [
                1.287045955657959,
                1,
                1.287045955657959
            ],
            "min" : [
                -1.287045955657959,
                -3.6510448455810547,
                -1.287045955657959
            ],
            "type" : "VEC3"
        },
        {
            "bufferView" : 1,
            "componentType" : 5126,
            "count" : 1194,
            "type" : "VEC3"
        },
        {
            "bufferView" : 2,
            "componentType" : 5126,
            "count" : 1194,
            "type" : "VEC2"
        },
        {
            "bufferView" : 3,
            "componentType" : 5123,
            "count" : 5172,
            "type" : "SCALAR"
        },
        {
            "bufferView" : 4,
            "componentType" : 5126,
            "count" : 1194,
            "max" : [
                1.287045955657959,
                1,
                1.287045955657959
            ],
            "min" : [
                -1.287045955657959,
                -3.6510448455810547,
                -1.287045955657959
            ],
            "type" : "VEC3"
        },
        {
            "bufferView" : 5,
            "componentType" : 5126,
            "count" : 1194,
            "type" : "VEC3"
        },
        {
            "bufferView" : 6,
            "componentType" : 5126,
            "count" : 1194,
            "type" : "VEC2"
        },
        {
            "bufferView" : 7,
            "componentType" : 5126,
            "count" : 1194,
            "max" : [
                1.287045955657959,
                1,
                1.287045955657959
            ],
            "min" : [
                -1.287045955657959,
                -3.6510448455810547,
                -1.287045955657959
            ],
            "type" : "VEC3"
        },
        {
            "bufferView" : 8,
            "componentType" : 5126,
            "count" : 1194,
            "type" : "VEC3"
        },
        {
            "bufferView" : 9,
            "componentType" : 5126,
            "count" : 1194,
            "type" : "VEC2"
        },
        {
            "bufferView" : 10,
            "componentType" : 5126,
            "count" : 1194,
            "max" : [
                1.287045955657959,
                1,
                1.287045955657959
            ],
            "min" : [
                -1.287045955657959,
                -3.6510448455810547,
                -1.287045955657959
            ],
            "type" : "VEC3"
        },
        {
            "bufferView" : 11,
            "componentType" : 5126,
            "count" : 1194,
            "type" : "VEC3"
        },
        {
            "bufferView" : 12,
            "componentType" : 5126,
            "count" : 1194,
            "type" : "VEC2"
        },
        {
            "bufferView" : 13,
            "componentType" : 5126,
            "count" : 1194,
            "max" : [
                1.287045955657959,
                1,
                1.287045955657959
            ],
            "min" : [
                -1.287045955657959,
                -3.6510448455810547,
                -1.287045955657959
            ],
            "type" : "VEC3"
        },
        {
            "bufferView" : 14,
            "componentType" : 5126,
            "count" : 1194,
            "type" : "VEC3"
        },
        {
            "bufferView" : 15,
            "componentType" : 5126,
            "count" : 1194,
            "type" : "VEC2"
        },
        {
            "bufferView" : 16,
            "componentType" : 5126,
            "count" : 1194,
            "max" : [
                1.287045955657959,
                1,
                1.287045955657959
            ],
            "min" : [
                -1.287045955657959,
                -3.6510448455810547,
                -1.287045955657959
            ],
            "type" : "VEC3"
        },
        {
            "bufferView" : 17,
            "componentType" : 5126,
            "count" : 1194,
            "type" : "VEC3"
        },
        {
            "bufferView" : 18,
            "componentType" : 5126,
            "count" : 1194,
            "type" : "VEC2"
        },
        {
            "bufferView" : 19,
            "componentType" : 5126,
            "count" : 1194,
            "max" : [
                1.287045955657959,
                1,
                1.287045955657959
            ],
            "min" : [
                -1.287045955657959,
                -3.6510448455810547,
                -1.287045955657959
            ],
            "type" : "VEC3"
        },
        {
            "bufferView" : 20,
            "componentType" : 5126,
            "count" : 1194,
            "type" : "VEC3"
        },
        {
            "bufferView" : 21,
            "componentType" : 5126,
            "count" : 1194,
            "type" : "VEC2"
        },
        {
            "bufferView" : 22,
            "componentType" : 5126,
            "count" : 870,
            "max" : [
                3.505061388015747,
                42.14674377441406,
                5.5027289390563965
            ],
            "min" : [
                -6.926923751831055,
                -45.13409423828125,
                -5.7537841796875
            ],
            "type" : "VEC3"
        },
        {
            "bufferView" : 23,
            "componentType" : 5126,
            "count" : 870,
            "type" : "VEC3"
        },
        {
            "bufferView" : 24,
            "componentType" : 5126,
            "count" : 870,
            "type" : "VEC2"
        },
        {
            "bufferView" : 25,
            "componentType" : 5126,
            "count" : 870,
            "type" : "VEC2"
        },
        {
            "bufferView" : 26,
            "componentType" : 5123,
            "count" : 5196,
            "type" : "SCALAR"
        },
        {
            "bufferView" : 27,
            "componentType" : 5126,
            "count" : 870,
            "max" : [
                6.989971160888672,
                248.17271423339844,
                -1.770782470703125
            ],
            "min" : [
                -6.926923751831055,
                -45.13409423828125,
                -17.522855758666992
            ],
            "type" : "VEC3"
        },
        {
            "bufferView" : 28,
            "componentType" : 5126,
            "count" : 870,
            "type" : "VEC3"
        },
        {
            "bufferView" : 29,
            "componentType" : 5126,
            "count" : 870,
            "type" : "VEC2"
        },
        {
            "bufferView" : 30,
            "componentType" : 5126,
            "count" : 870,
            "type" : "VEC2"
        },
        {
            "bufferView" : 31,
            "componentType" : 5126,
            "count" : 4699,
            "max" : [
                1.7273063659667969,
                5.021576881408691,
                1.041144847869873
            ],
            "min" : [
                -3.5608434677124023,
                -1.0850162506103516,
                -4.763369083404541
            ],
            "type" : "VEC3"
        },
        {
            "bufferView" : 32,
            "componentType" : 5126,
            "count" : 4699,
            "type" : "VEC3"
        },
        {
            "bufferView" : 33,
            "componentType" : 5126,
            "count" : 4699,
            "type" : "VEC2"
        },
        {
            "bufferView" : 34,
            "componentType" : 5123,
            "count" : 23136,
            "type" : "SCALAR"
        },
        {
            "bufferView" : 35,
            "componentType" : 5126,
            "count" : 1588,
            "max" : [
                1.7273063659667969,
                9.152856826782227,
                1.041144847869873
            ],
            "min" : [
                -3.5608434677124023,
                -0.3333333432674408,
                -4.763369083404541
            ],
            "type" : "VEC3"
        },
        {
            "bufferView" : 36,
            "componentType" : 5126,
            "count" : 1588,
            "type" : "VEC3"
        },
        {
            "bufferView" : 37,
            "componentType" : 5126,
            "count" : 1588,
            "type" : "VEC2"
        },
        {
            "bufferView" : 38,
            "componentType" : 5123,
            "count" : 8280,
            "type" : "SCALAR"
        }
    ],
    "bufferViews" : [
        {
            "buffer" : 0,
            "byteLength" : 14328,
            "byteOffset" : 0
        },
        {
            "buffer" : 0,
            "byteLength" : 14328,
            "byteOffset" : 14328
        },
        {
            "buffer" : 0,
            "byteLength" : 9552,
            "byteOffset" : 28656
        },
        {
            "buffer" : 0,
            "byteLength" : 10344,
            "byteOffset" : 38208
        },
        {
            "buffer" : 0,
            "byteLength" : 14328,
            "byteOffset" : 48552
        },
        {
            "buffer" : 0,
            "byteLength" : 14328,
            "byteOffset" : 62880
        },
        {
            "buffer" : 0,
            "byteLength" : 9552,
            "byteOffset" : 77208
        },
        {
            "buffer" : 0,
            "byteLength" : 14328,
            "byteOffset" : 86760
        },
        {
            "buffer" : 0,
            "byteLength" : 14328,
            "byteOffset" : 101088
        },
        {
            "buffer" : 0,
            "byteLength" : 9552,
            "byteOffset" : 115416
        },
        {
            "buffer" : 0,
            "byteLength" : 14328,
            "byteOffset" : 124968
        },
        {
            "buffer" : 0,
            "byteLength" : 14328,
            "byteOffset" : 139296
        },
        {
            "buffer" : 0,
            "byteLength" : 9552,
            "byteOffset" : 153624
        },
        {
            "buffer" : 0,
            "byteLength" : 14328,
            "byteOffset" : 163176
        },
        {
            "buffer" : 0,
            "byteLength" : 14328,
            "byteOffset" : 177504
        },
        {
            "buffer" : 0,
            "byteLength" : 9552,
            "byteOffset" : 191832
        },
        {
            "buffer" : 0,
            "byteLength" : 14328,
            "byteOffset" : 201384
        },
        {
            "buffer" : 0,
            "byteLength" : 14328,
            "byteOffset" : 215712
        },
        {
            "buffer" : 0,
            "byteLength" : 9552,
            "byteOffset" : 230040
        },
        {
            "buffer" : 0,
            "byteLength" : 14328,
            "byteOffset" : 239592
        },
        {
            "buffer" : 0,
            "byteLength" : 14328,
            "byteOffset" : 253920
        },
        {
            "buffer" : 0,
            "byteLength" : 9552,
            "byteOffset" : 268248
        },
        {
            "buffer" : 0,
            "byteLength" : 10440,
            "byteOffset" : 277800
        },
        {
            "buffer" : 0,
            "byteLength" : 10440,
            "byteOffset" : 288240
        },
        {
            "buffer" : 0,
            "byteLength" : 6960,
            "byteOffset" : 298680
        },
        {
            "buffer" : 0,
            "byteLength" : 6960,
            "byteOffset" : 305640
        },
        {
            "buffer" : 0,
            "byteLength" : 10392,
            "byteOffset" : 312600
        },
        {
            "buffer" : 0,
            "byteLength" : 10440,
            "byteOffset" : 322992
        },
        {
            "buffer" : 0,
            "byteLength" : 10440,
            "byteOffset" : 333432
        },
        {
            "buffer" : 0,
            "byteLength" : 6960,
            "byteOffset" : 343872
        },
        {
            "buffer" : 0,
            "byteLength" : 6960,
            "byteOffset" : 350832
        },
        {
            "buffer" : 0,
            "byteLength" : 56388,
            "byteOffset" : 357792
        },
        {
            "buffer" : 0,
            "byteLength" : 56388,
            "byteOffset" : 414180
        },
        {
            "buffer" : 0,
            "byteLength" : 37592,
            "byteOffset" : 470568
        },
        {
            "buffer" : 0,
            "byteLength" : 46272,
            "byteOffset" : 508160
        },
        {
            "buffer" : 0,
            "byteLength" : 19056,
            "byteOffset" : 554432
        },
        {
            "buffer" : 0,
            "byteLength" : 19056,
            "byteOffset" : 573488
        },
        {
            "buffer" : 0,
            "byteLength" : 12704,
            "byteOffset" : 592544
        },
        {
            "buffer" : 0,
            "byteLength" : 16560,
            "byteOffset" : 605248
        }
    ],
    "buffers" : [
        {
            "byteLength" : 621808,
            "uri" : "data:application/octet-stream;base64,"
        }
    ]
}
