{
    "asset" : {
        "generator" : "Khronos glTF Blender I/O v1.2.75",
        "version" : "2.0"
    },
    "scene" : 0,
    "scenes" : [
        {
            "name" : "Scene",
            "nodes" : [
                0,
                1,
                2
            ]
        }
    ],
    "nodes" : [
        {
            "mesh" : 0,
            "name" : "1car",
            "rotation" : [
                -0.6797516942024231,
                0.7334423661231995,
                0,
                -1.7534330254420638e-07
            ],
            "scale" : [
                0.02666318789124489,
                0.005926893092691898,
                0.026663193479180336
            ],
            "translation" : [
                -0.05802192538976669,
                1.066917061805725,
                0.012205895967781544
            ]
        },
        {
            "mesh" : 1,
            "name" : "0earth"
        },
        {
            "mesh" : 2,
            "name" : "2cloud",
            "rotation" : [
                -0.39195680618286133,
                -0.6965514421463013,
                0.12172140926122665,
                0.5885319113731384
            ],
            "scale" : [
                0.05632622912526131,
                0.01252061314880848,
                0.056326232850551605
            ]
        }
    ],
    "materials" : [
        {
            "doubleSided" : true,
            "emissiveFactor" : [
                0,
                0,
                0
            ],
            "name" : "yellow_main.003",
            "pbrMetallicRoughness" : {
                "baseColorFactor" : [
                    0.9911022186279297,
                    0.8468735814094543,
                    0.00030356645584106445,
                    1
                ],
                "metallicFactor" : 0,
                "roughnessFactor" : 0.5
            }
        },
        {
            "doubleSided" : true,
            "emissiveFactor" : [
                0,
                0,
                0
            ],
            "name" : "white_main.004",
            "pbrMetallicRoughness" : {
                "baseColorFactor" : [
                    0.9386858344078064,
                    0.9386858344078064,
                    0.9386858940124512,
                    1
                ],
                "metallicFactor" : 0,
                "roughnessFactor" : 0.5
            }
        },
        {
            "doubleSided" : true,
            "emissiveFactor" : [
                0,
                0,
                0
            ],
            "name" : "grey_main.003",
            "pbrMetallicRoughness" : {
                "baseColorFactor" : [
                    0.737910807132721,
                    0.7454043030738831,
                    0.7529425024986267,
                    1
                ],
                "metallicFactor" : 0,
                "roughnessFactor" : 0.5
            }
        },
        {
            "doubleSided" : true,
            "emissiveFactor" : [
                0,
                0,
                0
            ],
            "name" : "black.005",
            "pbrMetallicRoughness" : {
                "baseColorFactor" : [
                    0.015208519995212555,
                    0.013702082447707653,
                    0.014443839900195599,
                    1
                ],
                "metallicFactor" : 0,
                "roughnessFactor" : 0.5
            }
        },
        {
            "doubleSided" : true,
            "emissiveFactor" : [
                0,
                0,
                0
            ],
            "name" : "white_main",
            "pbrMetallicRoughness" : {
                "baseColorFactor" : [
                    0.9386858344078064,
                    0.9386858344078064,
                    0.9386858940124512,
                    1
                ],
                "metallicFactor" : 0,
                "roughnessFactor" : 0.5
            }
        },
        {
            "doubleSided" : true,
            "emissiveFactor" : [
                0,
                0,
                0
            ],
            "name" : "yellow_main",
            "pbrMetallicRoughness" : {
                "baseColorFactor" : [
                    0.9911022186279297,
                    0.8468735814094543,
                    0.00030356645584106445,
                    1
                ],
                "metallicFactor" : 0,
                "roughnessFactor" : 0.5
            }
        },
        {
            "doubleSided" : true,
            "emissiveFactor" : [
                0,
                0,
                0
            ],
            "name" : "yellow_main.005",
            "pbrMetallicRoughness" : {
                "baseColorFactor" : [
                    0.9911022186279297,
                    0.8468735814094543,
                    0.00030356645584106445,
                    1
                ],
                "metallicFactor" : 0,
                "roughnessFactor" : 0.5
            }
        },
        {
            "doubleSided" : true,
            "emissiveFactor" : [
                0,
                0,
                0
            ],
            "name" : "white_main.006",
            "pbrMetallicRoughness" : {
                "baseColorFactor" : [
                    0.9386858344078064,
                    0.9386858344078064,
                    0.9386858940124512,
                    1
                ],
                "metallicFactor" : 0,
                "roughnessFactor" : 0.5
            }
        },
        {
            "doubleSided" : true,
            "emissiveFactor" : [
                0,
                0,
                0
            ],
            "name" : "white.013",
            "pbrMetallicRoughness" : {
                "baseColorFactor" : [
                    0.9046611785888672,
                    0.8796225190162659,
                    0.8387993574142456,
                    1
                ],
                "metallicFactor" : 0,
                "roughnessFactor" : 0.5
            }
        }
    ],
    "meshes" : [
        {
            "name" : "\u5186\u67f1.047",
            "primitives" : [
                {
                    "attributes" : {
                        "POSITION" : 0,
                        "NORMAL" : 1,
                        "TEXCOORD_0" : 2,
                        "TEXCOORD_1" : 3
                    },
                    "indices" : 4,
                    "material" : 0
                },
                {
                    "attributes" : {
                        "POSITION" : 5,
                        "NORMAL" : 6,
                        "TEXCOORD_0" : 7,
                        "TEXCOORD_1" : 8
                    },
                    "indices" : 9,
                    "material" : 1
                },
                {
                    "attributes" : {
                        "POSITION" : 10,
                        "NORMAL" : 11,
                        "TEXCOORD_0" : 12,
                        "TEXCOORD_1" : 13
                    },
                    "indices" : 14,
                    "material" : 2
                },
                {
                    "attributes" : {
                        "POSITION" : 15,
                        "NORMAL" : 16,
                        "TEXCOORD_0" : 17,
                        "TEXCOORD_1" : 18
                    },
                    "indices" : 19,
                    "material" : 3
                }
            ]
        },
        {
            "name" : "ICO\u7403.001",
            "primitives" : [
                {
                    "attributes" : {
                        "POSITION" : 20,
                        "NORMAL" : 21,
                        "TEXCOORD_0" : 22,
                        "TEXCOORD_1" : 23,
                        "COLOR_0" : 24
                    },
                    "indices" : 25,
                    "material" : 4
                },
                {
                    "attributes" : {
                        "POSITION" : 26,
                        "NORMAL" : 27,
                        "TEXCOORD_0" : 28,
                        "TEXCOORD_1" : 29,
                        "COLOR_0" : 30
                    },
                    "indices" : 31,
                    "material" : 5
                },
                {
                    "attributes" : {
                        "POSITION" : 32,
                        "NORMAL" : 33,
                        "TEXCOORD_0" : 34,
                        "TEXCOORD_1" : 35,
                        "COLOR_0" : 36
                    },
                    "indices" : 37,
                    "material" : 6
                },
                {
                    "attributes" : {
                        "POSITION" : 38,
                        "NORMAL" : 39,
                        "TEXCOORD_0" : 40,
                        "TEXCOORD_1" : 41,
                        "COLOR_0" : 42
                    },
                    "indices" : 43,
                    "material" : 7
                }
            ]
        },
        {
            "name" : "\u5186\u67f1.007",
            "primitives" : [
                {
                    "attributes" : {
                        "POSITION" : 44,
                        "NORMAL" : 45,
                        "TEXCOORD_0" : 46,
                        "TEXCOORD_1" : 47
                    },
                    "indices" : 48,
                    "material" : 8
                }
            ]
        }
    ],
    "accessors" : [
        {
            "bufferView" : 0,
            "componentType" : 5126,
            "count" : 206,
            "max" : [
                -0.4894787669181824,
                47.816192626953125,
                5.227270603179932
            ],
            "min" : [
                -10.418802261352539,
                -41.41043472290039,
                -5.213363170623779
            ],
            "type" : "VEC3"
        },
        {
            "bufferView" : 1,
            "componentType" : 5126,
            "count" : 206,
            "type" : "VEC3"
        },
        {
            "bufferView" : 2,
            "componentType" : 5126,
            "count" : 206,
            "type" : "VEC2"
        },
        {
            "bufferView" : 3,
            "componentType" : 5126,
            "count" : 206,
            "type" : "VEC2"
        },
        {
            "bufferView" : 4,
            "componentType" : 5123,
            "count" : 348,
            "type" : "SCALAR"
        },
        {
            "bufferView" : 5,
            "componentType" : 5126,
            "count" : 1566,
            "max" : [
                2.5612995624542236,
                47.061073303222656,
                6.828863143920898
            ],
            "min" : [
                -11.128266334533691,
                -63.39857864379883,
                -6.829489231109619
            ],
            "type" : "VEC3"
        },
        {
            "bufferView" : 6,
            "componentType" : 5126,
            "count" : 1566,
            "type" : "VEC3"
        },
        {
            "bufferView" : 7,
            "componentType" : 5126,
            "count" : 1566,
            "type" : "VEC2"
        },
        {
            "bufferView" : 8,
            "componentType" : 5126,
            "count" : 1566,
            "type" : "VEC2"
        },
        {
            "bufferView" : 9,
            "componentType" : 5123,
            "count" : 2574,
            "type" : "SCALAR"
        },
        {
            "bufferView" : 10,
            "componentType" : 5126,
            "count" : 24,
            "max" : [
                0.17971253395080566,
                45.58821105957031,
                6.403624057769775
            ],
            "min" : [
                -5.063131332397461,
                -61.72604751586914,
                -6.404249668121338
            ],
            "type" : "VEC3"
        },
        {
            "bufferView" : 11,
            "componentType" : 5126,
            "count" : 24,
            "type" : "VEC3"
        },
        {
            "bufferView" : 12,
            "componentType" : 5126,
            "count" : 24,
            "type" : "VEC2"
        },
        {
            "bufferView" : 13,
            "componentType" : 5126,
            "count" : 24,
            "type" : "VEC2"
        },
        {
            "bufferView" : 14,
            "componentType" : 5123,
            "count" : 36,
            "type" : "SCALAR"
        },
        {
            "bufferView" : 15,
            "componentType" : 5126,
            "count" : 652,
            "max" : [
                3.629725694656372,
                32.392822265625,
                5.000212669372559
            ],
            "min" : [
                -1.7218232154846191,
                -50.413448333740234,
                -5.000838279724121
            ],
            "type" : "VEC3"
        },
        {
            "bufferView" : 16,
            "componentType" : 5126,
            "count" : 652,
            "type" : "VEC3"
        },
        {
            "bufferView" : 17,
            "componentType" : 5126,
            "count" : 652,
            "type" : "VEC2"
        },
        {
            "bufferView" : 18,
            "componentType" : 5126,
            "count" : 652,
            "type" : "VEC2"
        },
        {
            "bufferView" : 19,
            "componentType" : 5123,
            "count" : 1236,
            "type" : "SCALAR"
        },
        {
            "bufferView" : 20,
            "componentType" : 5126,
            "count" : 693,
            "max" : [
                0.9741957187652588,
                1,
                1.0222816467285156
            ],
            "min" : [
                -1.0652354955673218,
                -0.9710475206375122,
                -1.0255894660949707
            ],
            "type" : "VEC3"
        },
        {
            "bufferView" : 21,
            "componentType" : 5126,
            "count" : 693,
            "type" : "VEC3"
        },
        {
            "bufferView" : 22,
            "componentType" : 5126,
            "count" : 693,
            "type" : "VEC2"
        },
        {
            "bufferView" : 23,
            "componentType" : 5126,
            "count" : 693,
            "type" : "VEC2"
        },
        {
            "bufferView" : 24,
            "componentType" : 5126,
            "count" : 693,
            "type" : "VEC4"
        },
        {
            "bufferView" : 25,
            "componentType" : 5123,
            "count" : 693,
            "type" : "SCALAR"
        },
        {
            "bufferView" : 26,
            "componentType" : 5126,
            "count" : 267,
            "max" : [
                0.9741957187652588,
                1,
                0.5637486577033997
            ],
            "min" : [
                -1.0652354955673218,
                -1.0000224113464355,
                -0.5280912518501282
            ],
            "type" : "VEC3"
        },
        {
            "bufferView" : 27,
            "componentType" : 5126,
            "count" : 267,
            "type" : "VEC3"
        },
        {
            "bufferView" : 28,
            "componentType" : 5126,
            "count" : 267,
            "type" : "VEC2"
        },
        {
            "bufferView" : 29,
            "componentType" : 5126,
            "count" : 267,
            "type" : "VEC2"
        },
        {
            "bufferView" : 30,
            "componentType" : 5126,
            "count" : 267,
            "type" : "VEC4"
        },
        {
            "bufferView" : 31,
            "componentType" : 5123,
            "count" : 267,
            "type" : "SCALAR"
        },
        {
            "bufferView" : 32,
            "componentType" : 5126,
            "count" : 4912,
            "max" : [
                1.2364921569824219,
                1.3694123029708862,
                1.3028167486190796
            ],
            "min" : [
                -1.3115451335906982,
                -1.0289437770843506,
                -1.0050885677337646
            ],
            "type" : "VEC3"
        },
        {
            "bufferView" : 33,
            "componentType" : 5126,
            "count" : 4912,
            "type" : "VEC3"
        },
        {
            "bufferView" : 34,
            "componentType" : 5126,
            "count" : 4912,
            "type" : "VEC2"
        },
        {
            "bufferView" : 35,
            "componentType" : 5126,
            "count" : 4912,
            "type" : "VEC2"
        },
        {
            "bufferView" : 36,
            "componentType" : 5126,
            "count" : 4912,
            "type" : "VEC4"
        },
        {
            "bufferView" : 37,
            "componentType" : 5123,
            "count" : 6672,
            "type" : "SCALAR"
        },
        {
            "bufferView" : 38,
            "componentType" : 5126,
            "count" : 3816,
            "max" : [
                1.091502070426941,
                1.1351832151412964,
                1.058990716934204
            ],
            "min" : [
                -1.1370683908462524,
                -0.8692078590393066,
                -0.7973544597625732
            ],
            "type" : "VEC3"
        },
        {
            "bufferView" : 39,
            "componentType" : 5126,
            "count" : 3816,
            "type" : "VEC3"
        },
        {
            "bufferView" : 40,
            "componentType" : 5126,
            "count" : 3816,
            "type" : "VEC2"
        },
        {
            "bufferView" : 41,
            "componentType" : 5126,
            "count" : 3816,
            "type" : "VEC2"
        },
        {
            "bufferView" : 42,
            "componentType" : 5126,
            "count" : 3816,
            "type" : "VEC4"
        },
        {
            "bufferView" : 43,
            "componentType" : 5123,
            "count" : 4776,
            "type" : "SCALAR"
        },
        {
            "bufferView" : 44,
            "componentType" : 5126,
            "count" : 4350,
            "max" : [
                40.59329605102539,
                164.1124267578125,
                42.790382385253906
            ],
            "min" : [
                -34.32461929321289,
                -98.2535629272461,
                -47.630126953125
            ],
            "type" : "VEC3"
        },
        {
            "bufferView" : 45,
            "componentType" : 5126,
            "count" : 4350,
            "type" : "VEC3"
        },
        {
            "bufferView" : 46,
            "componentType" : 5126,
            "count" : 4350,
            "type" : "VEC2"
        },
        {
            "bufferView" : 47,
            "componentType" : 5126,
            "count" : 4350,
            "type" : "VEC2"
        },
        {
            "bufferView" : 48,
            "componentType" : 5123,
            "count" : 25980,
            "type" : "SCALAR"
        }
    ],
    "bufferViews" : [
        {
            "buffer" : 0,
            "byteLength" : 2472,
            "byteOffset" : 0
        },
        {
            "buffer" : 0,
            "byteLength" : 2472,
            "byteOffset" : 2472
        },
        {
            "buffer" : 0,
            "byteLength" : 1648,
            "byteOffset" : 4944
        },
        {
            "buffer" : 0,
            "byteLength" : 1648,
            "byteOffset" : 6592
        },
        {
            "buffer" : 0,
            "byteLength" : 696,
            "byteOffset" : 8240
        },
        {
            "buffer" : 0,
            "byteLength" : 18792,
            "byteOffset" : 8936
        },
        {
            "buffer" : 0,
            "byteLength" : 18792,
            "byteOffset" : 27728
        },
        {
            "buffer" : 0,
            "byteLength" : 12528,
            "byteOffset" : 46520
        },
        {
            "buffer" : 0,
            "byteLength" : 12528,
            "byteOffset" : 59048
        },
        {
            "buffer" : 0,
            "byteLength" : 5148,
            "byteOffset" : 71576
        },
        {
            "buffer" : 0,
            "byteLength" : 288,
            "byteOffset" : 76724
        },
        {
            "buffer" : 0,
            "byteLength" : 288,
            "byteOffset" : 77012
        },
        {
            "buffer" : 0,
            "byteLength" : 192,
            "byteOffset" : 77300
        },
        {
            "buffer" : 0,
            "byteLength" : 192,
            "byteOffset" : 77492
        },
        {
            "buffer" : 0,
            "byteLength" : 72,
            "byteOffset" : 77684
        },
        {
            "buffer" : 0,
            "byteLength" : 7824,
            "byteOffset" : 77756
        },
        {
            "buffer" : 0,
            "byteLength" : 7824,
            "byteOffset" : 85580
        },
        {
            "buffer" : 0,
            "byteLength" : 5216,
            "byteOffset" : 93404
        },
        {
            "buffer" : 0,
            "byteLength" : 5216,
            "byteOffset" : 98620
        },
        {
            "buffer" : 0,
            "byteLength" : 2472,
            "byteOffset" : 103836
        },
        {
            "buffer" : 0,
            "byteLength" : 8316,
            "byteOffset" : 106308
        },
        {
            "buffer" : 0,
            "byteLength" : 8316,
            "byteOffset" : 114624
        },
        {
            "buffer" : 0,
            "byteLength" : 5544,
            "byteOffset" : 122940
        },
        {
            "buffer" : 0,
            "byteLength" : 5544,
            "byteOffset" : 128484
        },
        {
            "buffer" : 0,
            "byteLength" : 11088,
            "byteOffset" : 134028
        },
        {
            "buffer" : 0,
            "byteLength" : 1386,
            "byteOffset" : 145116
        },
        {
            "buffer" : 0,
            "byteLength" : 3204,
            "byteOffset" : 146504
        },
        {
            "buffer" : 0,
            "byteLength" : 3204,
            "byteOffset" : 149708
        },
        {
            "buffer" : 0,
            "byteLength" : 2136,
            "byteOffset" : 152912
        },
        {
            "buffer" : 0,
            "byteLength" : 2136,
            "byteOffset" : 155048
        },
        {
            "buffer" : 0,
            "byteLength" : 4272,
            "byteOffset" : 157184
        },
        {
            "buffer" : 0,
            "byteLength" : 534,
            "byteOffset" : 161456
        },
        {
            "buffer" : 0,
            "byteLength" : 58944,
            "byteOffset" : 161992
        },
        {
            "buffer" : 0,
            "byteLength" : 58944,
            "byteOffset" : 220936
        },
        {
            "buffer" : 0,
            "byteLength" : 39296,
            "byteOffset" : 279880
        },
        {
            "buffer" : 0,
            "byteLength" : 39296,
            "byteOffset" : 319176
        },
        {
            "buffer" : 0,
            "byteLength" : 78592,
            "byteOffset" : 358472
        },
        {
            "buffer" : 0,
            "byteLength" : 13344,
            "byteOffset" : 437064
        },
        {
            "buffer" : 0,
            "byteLength" : 45792,
            "byteOffset" : 450408
        },
        {
            "buffer" : 0,
            "byteLength" : 45792,
            "byteOffset" : 496200
        },
        {
            "buffer" : 0,
            "byteLength" : 30528,
            "byteOffset" : 541992
        },
        {
            "buffer" : 0,
            "byteLength" : 30528,
            "byteOffset" : 572520
        },
        {
            "buffer" : 0,
            "byteLength" : 61056,
            "byteOffset" : 603048
        },
        {
            "buffer" : 0,
            "byteLength" : 9552,
            "byteOffset" : 664104
        },
        {
            "buffer" : 0,
            "byteLength" : 52200,
            "byteOffset" : 673656
        },
        {
            "buffer" : 0,
            "byteLength" : 52200,
            "byteOffset" : 725856
        },
        {
            "buffer" : 0,
            "byteLength" : 34800,
            "byteOffset" : 778056
        },
        {
            "buffer" : 0,
            "byteLength" : 34800,
            "byteOffset" : 812856
        },
        {
            "buffer" : 0,
            "byteLength" : 51960,
            "byteOffset" : 847656
        }
    ],
    "buffers" : [
        {
            "byteLength" : 899616,
            "uri" : "data:application/octet-stream;base64,"
        }
    ]
}
